<svg width="400" height="120" viewBox="0 0 400 120" fill="none" xmlns="http://www.w3.org/2000/svg">
<path d="M289.315 89.8686V44.9783H301.331V89.8686H289.315Z" fill="#14141F"/>
<path d="M295.352 39.1916C293.565 39.1916 292.033 38.5779 290.754 37.3504C289.494 36.1035 288.864 34.613 288.864 32.8789C288.864 31.1644 289.494 29.6934 290.754 28.4659C292.033 27.2189 293.565 26.5955 295.352 26.5955C297.138 26.5955 298.661 27.2189 299.921 28.4659C301.2 29.6934 301.839 31.1644 301.839 32.8789C301.839 34.613 301.2 36.1035 299.921 37.3504C298.661 38.5779 297.138 39.1916 295.352 39.1916Z" fill="#14141F"/>
<path d="M322.971 89.8687V63.9165C322.989 61.9876 323.337 60.3412 324.014 58.9774C324.71 57.594 325.669 56.5419 326.891 55.821C328.132 55.1001 329.562 54.7397 331.179 54.7397C333.586 54.7397 335.476 55.519 336.848 57.0777C338.221 58.6169 338.898 60.7601 338.879 63.5073V89.8687H350.895V61.2862C350.895 57.7986 350.275 54.7981 349.034 52.2847C347.793 49.7518 346.053 47.8035 343.815 46.4396C341.578 45.0758 338.954 44.3938 335.946 44.3938C332.73 44.3938 329.994 45.1634 327.738 46.7026C325.481 48.2224 323.873 50.2876 322.914 52.8985H322.406V44.9783H310.954V89.8687H322.971Z" fill="#14141F"/>
<path fill-rule="evenodd" clip-rule="evenodd" d="M368.606 87.9398C371.821 89.8102 375.657 90.7455 380.114 90.7455C383.687 90.7455 386.837 90.1804 389.563 89.0504C392.309 87.9008 394.547 86.3032 396.277 84.2574C398.025 82.1921 399.182 79.7762 399.746 77.0095L388.633 76.2496C388.219 77.3797 387.617 78.3344 386.827 79.1137C386.038 79.8931 385.088 80.4776 383.978 80.8672C382.869 81.2569 381.647 81.4518 380.312 81.4518C378.299 81.4518 376.56 81.0134 375.093 80.1366C373.627 79.2598 372.489 78.0129 371.68 76.3957C370.891 74.7786 370.496 72.8595 370.496 70.6383V70.6091H400V67.1897C400 63.3709 399.483 60.0392 398.449 57.1946C397.414 54.3305 395.966 51.9535 394.105 50.0636C392.262 48.1737 390.099 46.7611 387.617 45.8259C385.154 44.8712 382.493 44.3938 379.635 44.3938C375.385 44.3938 371.68 45.368 368.521 47.3164C365.381 49.2648 362.946 51.9827 361.216 55.4703C359.486 58.9579 358.62 63.0105 358.62 67.6281C358.62 72.3626 359.486 76.4639 361.216 79.932C362.946 83.3806 365.409 86.0499 368.606 87.9398ZM370.507 62.8936C370.579 61.2816 370.98 59.8106 371.708 58.4805C372.498 57.0192 373.589 55.86 374.98 55.0027C376.391 54.1259 378.008 53.6875 379.832 53.6875C381.581 53.6875 383.113 54.087 384.43 54.8858C385.765 55.6651 386.809 56.7465 387.561 58.1298C388.313 59.5132 388.689 61.1011 388.689 62.8936H370.507Z" fill="#14141F"/>
<path d="M281.972 54.331V44.9788H273.341V41.9686C273.341 40.4489 273.689 39.2701 274.385 38.4323C275.081 37.575 276.312 37.1464 278.08 37.1464C278.794 37.1464 279.49 37.2146 280.167 37.351C280.863 37.4873 281.446 37.6335 281.916 37.7893L284.06 28.4372C283.308 28.2034 282.16 27.9404 280.618 27.6481C279.095 27.3558 277.412 27.2097 275.569 27.2097C272.843 27.2097 270.408 27.7455 268.264 28.8171C266.12 29.8887 264.428 31.4961 263.187 33.6393C261.964 35.7825 261.353 38.481 261.353 41.7348V44.9788H255.232V54.331H261.353V89.8692H273.341V54.331H281.972Z" fill="#14141F"/>
<path fill-rule="evenodd" clip-rule="evenodd" d="M230.949 90.7455C226.493 90.7455 222.656 89.8102 219.441 87.9398C216.244 86.0499 213.781 83.3806 212.051 79.932C210.321 76.4639 209.456 72.3626 209.456 67.6281C209.456 63.0105 210.321 58.9579 212.051 55.4703C213.781 51.9827 216.216 49.2648 219.356 47.3164C222.515 45.368 226.22 44.3938 230.47 44.3938C233.328 44.3938 235.989 44.8712 238.452 45.8259C240.934 46.7611 243.097 48.1737 244.94 50.0636C246.802 51.9535 248.249 54.3305 249.284 57.1946C250.318 60.0392 250.835 63.3709 250.835 67.1897V70.6091H221.331V70.6383C221.331 72.8595 221.726 74.7786 222.515 76.3957C223.324 78.0129 224.462 79.2598 225.928 80.1366C227.395 81.0134 229.135 81.4518 231.147 81.4518C232.482 81.4518 233.704 81.2569 234.814 80.8672C235.923 80.4776 236.873 79.8931 237.662 79.1137C238.452 78.3344 239.054 77.3797 239.468 76.2496L250.581 77.0095C250.017 79.7762 248.861 82.1921 247.112 84.2574C245.382 86.3032 243.144 87.9008 240.399 89.0504C237.672 90.1804 234.522 90.7455 230.949 90.7455ZM221.342 62.8936H239.524C239.524 61.1011 239.148 59.5132 238.396 58.1298C237.644 56.7465 236.6 55.6651 235.265 54.8858C233.949 54.087 232.416 53.6875 230.667 53.6875C228.843 53.6875 227.226 54.1259 225.816 55.0027C224.424 55.86 223.333 57.0192 222.544 58.4805C221.815 59.8106 221.415 61.2816 221.342 62.8936Z" fill="#14141F"/>
<path fill-rule="evenodd" clip-rule="evenodd" d="M160 30.0155V89.8693H172.214V68.6516H181.129L192.071 89.8693H205.554L193.297 66.6165C193.474 66.5373 193.648 66.4558 193.82 66.372C196.96 64.8523 199.358 62.6701 201.013 59.8255C202.668 56.9614 203.495 53.542 203.495 49.5673C203.495 45.6122 202.677 42.1733 201.041 39.2507C199.424 36.3087 197.064 34.0389 193.961 32.4412C190.877 30.8241 187.154 30.0155 182.791 30.0155H160ZM180.506 58.4811H172.214V40.3613H180.45C182.801 40.3613 184.747 40.7218 186.289 41.4427C187.85 42.1441 189.006 43.1767 189.758 44.5406C190.529 45.9044 190.915 47.58 190.915 49.5673C190.915 51.5352 190.529 53.1816 189.758 54.5064C189.006 55.8313 187.859 56.825 186.317 57.4874C184.775 58.1499 182.838 58.4811 180.506 58.4811Z" fill="#14141F"/>
<path fill-rule="evenodd" clip-rule="evenodd" d="M68.9443 2.11146C63.3137 -0.703819 56.6863 -0.703819 51.0557 2.11146L11.0557 22.1115C4.28005 25.4993 0 32.4246 0 40V80C0 87.5754 4.28005 94.5007 11.0557 97.8885L51.0557 117.889C56.6863 120.704 63.3137 120.704 68.9443 117.889L108.944 97.8885C115.72 94.5007 120 87.5754 120 80V40C120 32.4246 115.72 25.4993 108.944 22.1115L68.9443 2.11146ZM40 40C40 28.9543 48.9543 20 60 20C71.0457 20 80 28.9543 80 40V80C80 91.0457 71.0457 100 60 100C48.9543 100 40 91.0457 40 80V40Z" fill="#14141F"/>
<path d="M70 40C70 45.5228 65.5228 50 60 50C54.4771 50 50 45.5228 50 40C50 34.4771 54.4771 30 60 30C65.5228 30 70 34.4771 70 40Z" fill="#14141F"/>
</svg>
